{
  "accessors": [
    {
      "bufferView": 2,
      "componentType": 5126,
      "count": 916,
      "max": [
        127.04481506347656,
        581.785400390625,
        -439.5419921875
      ],
      "min": [
        -181.17356872558594,
        -118.23626708984375,
        -917.1976318359375
      ],
      "type": "VEC3"
    },
    {
      "bufferView": 2,
      "byteOffset": 10992,
      "componentType": 5126,
      "count": 916,
      "max": [
        1.0,
        1.0,
        1.0
      ],
      "min": [
        -1.0,
        -1.0,
        -1.0
      ],
      "type": "VEC3"
    },
    {
      "bufferView": 3,
      "componentType": 5126,
      "count": 916,
      "max": [
        1.0,
        1.0,
        0.5880433320999146,
        1.0
      ],
      "min": [
        -0.28346213698387146,
        -0.5019555687904358,
        -0.5880430936813354,
        -1.0
      ],
      "type": "VEC4"
    },
    {
      "bufferView": 1,
      "componentType": 5126,
      "count": 916,
      "max": [
        0.9977629780769348,
        0.9898579716682434
      ],
      "min": [
        0.0009769999887794256,
        0.0009769999887794256
      ],
      "type": "VEC2"
    },
    {
      "bufferView": 0,
      "componentType": 5125,
      "count": 1836,
      "type": "SCALAR"
    },
    {
      "bufferView": 2,
      "byteOffset": 21984,
      "componentType": 5126,
      "count": 2705,
      "max": [
        230.199951171875,
        665.3102416992188,
        1206.59619140625
      ],
      "min": [
        -126.36904907226563,
        -110.24578857421875,
        615.837890625
      ],
      "type": "VEC3"
    },
    {
      "bufferView": 2,
      "byteOffset": 54444,
      "componentType": 5126,
      "count": 2705,
      "max": [
        1.0,
        1.0,
        1.0
      ],
      "min": [
        -1.0,
        -1.0,
        -1.0
      ],
      "type": "VEC3"
    },
    {
      "bufferView": 3,
      "byteOffset": 14656,
      "componentType": 5126,
      "count": 2705,
      "max": [
        1.0,
        1.0,
        0.6948718428611755,
        1.0
      ],
      "min": [
        -0.6081136465072632,
        -0.683203935623169,
        -0.694868803024292,
        1.0
      ],
      "type": "VEC4"
    },
    {
      "bufferView": 1,
      "byteOffset": 7328,
      "componentType": 5126,
      "count": 2705,
      "max": [
        0.9988830089569092,
        0.9449340105056763
      ],
      "min": [
        0.0009769999887794256,
        0.0009769999887794256
      ],
      "type": "VEC2"
    },
    {
      "bufferView": 0,
      "byteOffset": 7344,
      "componentType": 5125,
      "count": 5400,
      "type": "SCALAR"
    },
    {
      "bufferView": 2,
      "byteOffset": 86904,
      "componentType": 5126,
      "count": 3242,
      "max": [
        380.5937194824219,
        253.28558349609375,
        -6130.00634765625
      ],
      "min": [
        -380.5937805175781,
        -100.0,
        -6477.77099609375
      ],
      "type": "VEC3"
    },
    {
      "bufferView": 2,
      "byteOffset": 125808,
      "componentType": 5126,
      "count": 3242,
      "max": [
        1.0,
        1.0,
        1.0
      ],
      "min": [
        -1.0,
        -1.0,
        -1.0
      ],
      "type": "VEC3"
    },
    {
      "bufferView": 3,
      "byteOffset": 57936,
      "componentType": 5126,
      "count": 3242,
      "max": [
        1.0,
        1.0,
        0.7071102857589722,
        1.0
      ],
      "min": [
        -0.5845934748649597,
        -0.6837817430496216,
        -0.7071102261543274,
        1.0
      ],
      "type": "VEC4"
    },
    {
      "bufferView": 1,
      "byteOffset": 28968,
      "componentType": 5126,
      "count": 3242,
      "max": [
        0.9938719868659973,
        0.9975410103797913
      ],
      "min": [
        0.0009769999887794256,
        0.0009769999887794256
      ],
      "type": "VEC2"
    },
    {
      "bufferView": 0,
      "byteOffset": 28944,
      "componentType": 5125,
      "count": 4926,
      "type": "SCALAR"
    },
    {
      "bufferView": 2,
      "byteOffset": 164712,
      "componentType": 5126,
      "count": 2233,
      "max": [
        95.36595153808594,
        1063.6148681640625,
        -5322.1240234375
      ],
      "min": [
        -104.63404846191406,
        -18.1458740234375,
        -5730.3681640625
      ],
      "type": "VEC3"
    },
    {
      "bufferView": 2,
      "byteOffset": 191508,
      "componentType": 5126,
      "count": 2233,
      "max": [
        1.0,
        1.0,
        1.0
      ],
      "min": [
        -1.0,
        -1.0,
        -1.0
      ],
      "type": "VEC3"
    },
    {
      "bufferView": 3,
      "byteOffset": 109808,
      "componentType": 5126,
      "count": 2233,
      "max": [
        1.0,
        1.0,
        0.21622754633426666,
        1.0
      ],
      "min": [
        -0.7071072459220886,
        -0.7071192860603333,
        -0.09325877577066422,
        1.0
      ],
      "type": "VEC4"
    },
    {
      "bufferView": 1,
      "byteOffset": 54904,
      "componentType": 5126,
      "count": 2233,
      "max": [
        0.9989870190620422,
        0.9990230202674866
      ],
      "min": [
        0.0009769999887794256,
        0.0009769999887794256
      ],
      "type": "VEC2"
    },
    {
      "bufferView": 0,
      "byteOffset": 48648,
      "componentType": 5125,
      "count": 4815,
      "type": "SCALAR"
    },
    {
      "bufferView": 2,
      "byteOffset": 218304,
      "componentType": 5126,
      "count": 530,
      "max": [
        77.53601837158203,
        510.02008056640625,
        -4468.3408203125
      ],
      "min": [
        -77.5360107421875,
        -100.00006103515625,
        -4875.5322265625
      ],
      "type": "VEC3"
    },
    {
      "bufferView": 2,
      "byteOffset": 224664,
      "componentType": 5126,
      "count": 530,
      "max": [
        1.0,
        1.0,
        1.0
      ],
      "min": [
        -1.0,
        -1.0,
        -1.0
      ],
      "type": "VEC3"
    },
    {
      "bufferView": 3,
      "byteOffset": 145536,
      "componentType": 5126,
      "count": 530,
      "max": [
        1.0,
        1.0,
        0.0012652903096750379,
        1.0
      ],
      "min": [
        -0.5682321786880493,
        -0.7014260292053223,
        -0.0014255116693675518,
        1.0
      ],
      "type": "VEC4"
    },
    {
      "bufferView": 1,
      "byteOffset": 72768,
      "componentType": 5126,
      "count": 530,
      "max": [
        0.9968060255050659,
        0.66314697265625
      ],
      "min": [
        0.19236299395561218,
        0.0009769999887794256
      ],
      "type": "VEC2"
    },
    {
      "bufferView": 0,
      "byteOffset": 67908,
      "componentType": 5125,
      "count": 1086,
      "type": "SCALAR"
    },
    {
      "bufferView": 2,
      "byteOffset": 231024,
      "componentType": 5126,
      "count": 620,
      "max": [
        179.27972412109375,
        843.916015625,
        -3410.77685546875
      ],
      "min": [
        -179.2797393798828,
        -100.00006103515625,
        -3916.47998046875
      ],
      "type": "VEC3"
    },
    {
      "bufferView": 2,
      "byteOffset": 238464,
      "componentType": 5126,
      "count": 620,
      "max": [
        1.0,
        1.0,
        1.0
      ],
      "min": [
        -1.0,
        -1.0,
        -1.0
      ],
      "type": "VEC3"
    },
    {
      "bufferView": 3,
      "byteOffset": 154016,
      "componentType": 5126,
      "count": 620,
      "max": [
        1.0,
        1.0,
        0.9874733686447144,
        1.0
      ],
      "min": [
        -0.4094241261482239,
        -0.5126579403877258,
        -0.03662052005529404,
        1.0
      ],
      "type": "VEC4"
    },
    {
      "bufferView": 1,
      "byteOffset": 77008,
      "componentType": 5126,
      "count": 620,
      "max": [
        0.9487460255622864,
        0.8034150004386902
      ],
      "min": [
        0.0009769999887794256,
        0.0009769999887794256
      ],
      "type": "VEC2"
    },
    {
      "bufferView": 0,
      "byteOffset": 72252,
      "componentType": 5125,
      "count": 1062,
      "type": "SCALAR"
    },
    {
      "bufferView": 2,
      "byteOffset": 245904,
      "componentType": 5126,
      "count": 386,
      "max": [
        73.73876190185547,
        510.6579895019531,
        -2703.931640625
      ],
      "min": [
        -73.73878479003906,
        -100.00006103515625,
        -3089.24609375
      ],
      "type": "VEC3"
    },
    {
      "bufferView": 2,
      "byteOffset": 250536,
      "componentType": 5126,
      "count": 386,
      "max": [
        1.0,
        1.0,
        1.0
      ],
      "min": [
        -1.0,
        -1.0,
        -1.0
      ],
      "type": "VEC3"
    },
    {
      "bufferView": 3,
      "byteOffset": 163936,
      "componentType": 5126,
      "count": 386,
      "max": [
        1.0,
        1.0,
        0.978172242641449,
        1.0
      ],
      "min": [
        -0.5160865187644958,
        -0.5571547746658325,
        -0.1489688754081726,
        1.0
      ],
      "type": "VEC4"
    },
    {
      "bufferView": 1,
      "byteOffset": 81968,
      "componentType": 5126,
      "count": 386,
      "max": [
        0.9941580295562744,
        0.9149109721183777
      ],
      "min": [
        0.0009769999887794256,
        0.0009769999887794256
      ],
      "type": "VEC2"
    },
    {
      "bufferView": 0,
      "byteOffset": 76500,
      "componentType": 5125,
      "count": 834,
      "type": "SCALAR"
    },
    {
      "bufferView": 2,
      "byteOffset": 255168,
      "componentType": 5126,
      "count": 360,
      "max": [
        117.08193969726563,
        1131.6944580078125,
        -2157.40966796875
      ],
      "min": [
        -117.08193969726563,
        -100.0,
        -2391.57373046875
      ],
      "type": "VEC3"
    },
    {
      "bufferView": 2,
      "byteOffset": 259488,
      "componentType": 5126,
      "count": 360,
      "max": [
        1.0,
        1.0,
        1.0
      ],
      "min": [
        -1.0,
        -0.8611671328544617,
        -1.0
      ],
      "type": "VEC3"
    },
    {
      "bufferView": 3,
      "byteOffset": 170112,
      "componentType": 5126,
      "count": 360,
      "max": [
        1.0,
        1.0,
        0.707110583782196,
        1.0
      ],
      "min": [
        -0.5102531909942627,
        -0.6885940432548523,
        -0.7071068286895752,
        1.0
      ],
      "type": "VEC4"
    },
    {
      "bufferView": 1,
      "byteOffset": 85056,
      "componentType": 5126,
      "count": 360,
      "max": [
        0.9831159710884094,
        0.8762069940567017
      ],
      "min": [
        0.1397310048341751,
        0.0009769999887794256
      ],
      "type": "VEC2"
    },
    {
      "bufferView": 0,
      "byteOffset": 79836,
      "componentType": 5125,
      "count": 546,
      "type": "SCALAR"
    },
    {
      "bufferView": 2,
      "byteOffset": 263808,
      "componentType": 5126,
      "count": 680,
      "max": [
        121.66934967041016,
        1811.70068359375,
        -1383.244384765625
      ],
      "min": [
        -121.66935729980469,
        -100.0,
        -1680.7733154296875
      ],
      "type": "VEC3"
    },
    {
      "bufferView": 2,
      "byteOffset": 271968,
      "componentType": 5126,
      "count": 680,
      "max": [
        1.0,
        1.0,
        1.0
      ],
      "min": [
        -1.0,
        -0.9999923706054688,
        -1.0
      ],
      "type": "VEC3"
    },
    {
      "bufferView": 3,
      "byteOffset": 175872,
      "componentType": 5126,
      "count": 680,
      "max": [
        1.0,
        1.0,
        0.2486559897661209,
        1.0
      ],
      "min": [
        -0.6789581179618835,
        -0.0007559997611679137,
        -0.24875910580158234,
        -1.0
      ],
      "type": "VEC4"
    },
    {
      "bufferView": 1,
      "byteOffset": 87936,
      "componentType": 5126,
      "count": 680,
      "max": [
        0.9736120104789734,
        0.9290860295295715
      ],
      "min": [
        0.0009769999887794256,
        0.0009769999887794256
      ],
      "type": "VEC2"
    },
    {
      "bufferView": 0,
      "byteOffset": 82020,
      "componentType": 5125,
      "count": 1338,
      "type": "SCALAR"
    },
    {
      "bufferView": 2,
      "byteOffset": 280128,
      "componentType": 5126,
      "count": 369,
      "max": [
        514.0181884765625,
        280.92327880859375,
        179.338134765625
      ],
      "min": [
        -100.00001525878906,
        -100.0,
        -100.0
      ],
      "type": "VEC3"
    },
    {
      "bufferView": 2,
      "byteOffset": 284556,
      "componentType": 5126,
      "count": 369,
      "max": [
        1.0,
        1.0,
        1.0
      ],
      "min": [
        -1.0,
        -0.0001400000910507515,
        -1.0
      ],
      "type": "VEC3"
    },
    {
      "bufferView": 3,
      "byteOffset": 186752,
      "componentType": 5126,
      "count": 369,
      "max": [
        1.0,
        1.0,
        0.0008946236339397728,
        1.0
      ],
      "min": [
        -0.7071057558059692,
        -0.4650764465332031,
        -0.0010175189236178994,
        1.0
      ],
      "type": "VEC4"
    },
    {
      "bufferView": 1,
      "byteOffset": 93376,
      "componentType": 5126,
      "count": 369,
      "max": [
        0.878262996673584,
        0.9286609888076782
      ],
      "min": [
        0.0009769999887794256,
        0.04964999854564667
      ],
      "type": "VEC2"
    },
    {
      "bufferView": 0,
      "byteOffset": 87372,
      "componentType": 5125,
      "count": 642,
      "type": "SCALAR"
    }
  ],
  "asset": {
    "extras": {
      "author": "AO-INTERACTIVE (https://sketchfab.com/aointeractive)",
      "license": "CC-BY-4.0 (http://creativecommons.org/licenses/by/4.0/)",
      "source": "https://sketchfab.com/3d-models/grave-stones-743bddbaca8e4a2caabd08c727be51ed",
      "title": "Grave Stones"
    },
    "generator": "Sketchfab-12.68.0",
    "version": "2.0"
  },
  "bufferViews": [
    {
      "buffer": 0,
      "byteLength": 89940,
      "name": "floatBufferViews",
      "target": 34963
    },
    {
      "buffer": 0,
      "byteLength": 96328,
      "byteOffset": 89940,
      "byteStride": 8,
      "name": "floatBufferViews",
      "target": 34962
    },
    {
      "buffer": 0,
      "byteLength": 288984,
      "byteOffset": 186268,
      "byteStride": 12,
      "name": "floatBufferViews",
      "target": 34962
    },
    {
      "buffer": 0,
      "byteLength": 192656,
      "byteOffset": 475252,
      "byteStride": 16,
      "name": "floatBufferViews",
      "target": 34962
    }
  ],
  "buffers": [
    {
      "byteLength": 667908,
      "uri": "scene.bin"
    }
  ],
  "images": [
    {
      "uri": "textures/Graves_baseColor.jpeg"
    },
    {
      "uri": "textures/Graves_metallicRoughness.png"
    },
    {
      "uri": "textures/Graves_normal.png"
    }
  ],
  "materials": [
    {
      "doubleSided": true,
      "name": "Graves",
      "normalTexture": {
        "index": 2
      },
      "occlusionTexture": {
        "index": 1
      },
      "pbrMetallicRoughness": {
        "baseColorTexture": {
          "index": 0
        },
        "metallicRoughnessTexture": {
          "index": 1
        }
      }
    }
  ],
  "meshes": [
    {
      "name": "defaultMaterial",
      "primitives": [
        {
          "attributes": {
            "NORMAL": 1,
            "POSITION": 0,
            "TANGENT": 2,
            "TEXCOORD_0": 3
          },
          "indices": 4,
          "material": 0,
          "mode": 4
        }
      ]
    },
    {
      "name": "defaultMaterial",
      "primitives": [
        {
          "attributes": {
            "NORMAL": 6,
            "POSITION": 5,
            "TANGENT": 7,
            "TEXCOORD_0": 8
          },
          "indices": 9,
          "material": 0,
          "mode": 4
        }
      ]
    },
    {
      "name": "defaultMaterial",
      "primitives": [
        {
          "attributes": {
            "NORMAL": 11,
            "POSITION": 10,
            "TANGENT": 12,
            "TEXCOORD_0": 13
          },
          "indices": 14,
          "material": 0,
          "mode": 4
        }
      ]
    },
    {
      "name": "defaultMaterial",
      "primitives": [
        {
          "attributes": {
            "NORMAL": 16,
            "POSITION": 15,
            "TANGENT": 17,
            "TEXCOORD_0": 18
          },
          "indices": 19,
          "material": 0,
          "mode": 4
        }
      ]
    },
    {
      "name": "defaultMaterial",
      "primitives": [
        {
          "attributes": {
            "NORMAL": 21,
            "POSITION": 20,
            "TANGENT": 22,
            "TEXCOORD_0": 23
          },
          "indices": 24,
          "material": 0,
          "mode": 4
        }
      ]
    },
    {
      "name": "defaultMaterial",
      "primitives": [
        {
          "attributes": {
            "NORMAL": 26,
            "POSITION": 25,
            "TANGENT": 27,
            "TEXCOORD_0": 28
          },
          "indices": 29,
          "material": 0,
          "mode": 4
        }
      ]
    },
    {
      "name": "defaultMaterial",
      "primitives": [
        {
          "attributes": {
            "NORMAL": 31,
            "POSITION": 30,
            "TANGENT": 32,
            "TEXCOORD_0": 33
          },
          "indices": 34,
          "material": 0,
          "mode": 4
        }
      ]
    },
    {
      "name": "defaultMaterial",
      "primitives": [
        {
          "attributes": {
            "NORMAL": 36,
            "POSITION": 35,
            "TANGENT": 37,
            "TEXCOORD_0": 38
          },
          "indices": 39,
          "material": 0,
          "mode": 4
        }
      ]
    },
    {
      "name": "defaultMaterial",
      "primitives": [
        {
          "attributes": {
            "NORMAL": 41,
            "POSITION": 40,
            "TANGENT": 42,
            "TEXCOORD_0": 43
          },
          "indices": 44,
          "material": 0,
          "mode": 4
        }
      ]
    },
    {
      "name": "defaultMaterial",
      "primitives": [
        {
          "attributes": {
            "NORMAL": 46,
            "POSITION": 45,
            "TANGENT": 47,
            "TEXCOORD_0": 48
          },
          "indices": 49,
          "material": 0,
          "mode": 4
        }
      ]
    }
  ],
  "nodes": [
    {
      "children": [
        1
      ],
      "matrix": [
        1.0,
        0.0,
        0.0,
        0.0,
        0.0,
        2.220446049250313e-16,
        -1.0,
        0.0,
        0.0,
        1.0,
        2.220446049250313e-16,
        0.0,
        0.0,
        0.0,
        0.0,
        1.0
      ],
      "name": "Sketchfab_model"
    },
    {
      "children": [
        2,
        4,
        6,
        8,
        10,
        12,
        14,
        16,
        18,
        20
      ],
      "matrix": [
        1.0,
        0.0,
        0.0,
        0.0,
        0.0,
        -4.371139006309477e-08,
        0.999999999999999,
        0.0,
        0.0,
        -0.999999999999999,
        -4.371139006309477e-08,
        0.0,
        0.0,
        0.0,
        0.0,
        1.0
      ],
      "name": "Collada visual scene group"
    },
    {
      "children": [
        3
      ],
      "name": "Cube.010"
    },
    {
      "mesh": 0,
      "name": "defaultMaterial"
    },
    {
      "children": [
        5
      ],
      "name": "Cube.008"
    },
    {
      "mesh": 1,
      "name": "defaultMaterial"
    },
    {
      "children": [
        7
      ],
      "name": "Cylinder.000"
    },
    {
      "mesh": 2,
      "name": "defaultMaterial"
    },
    {
      "children": [
        9
      ],
      "name": "Cube.007"
    },
    {
      "mesh": 3,
      "name": "defaultMaterial"
    },
    {
      "children": [
        11
      ],
      "name": "Cube.006"
    },
    {
      "mesh": 4,
      "name": "defaultMaterial"
    },
    {
      "children": [
        13
      ],
      "name": "Cube.005"
    },
    {
      "mesh": 5,
      "name": "defaultMaterial"
    },
    {
      "children": [
        15
      ],
      "name": "Cube.004"
    },
    {
      "mesh": 6,
      "name": "defaultMaterial"
    },
    {
      "children": [
        17
      ],
      "name": "Cube.003"
    },
    {
      "mesh": 7,
      "name": "defaultMaterial"
    },
    {
      "children": [
        19
      ],
      "name": "Cube.002"
    },
    {
      "mesh": 8,
      "name": "defaultMaterial"
    },
    {
      "children": [
        21
      ],
      "name": "Cube"
    },
    {
      "mesh": 9,
      "name": "defaultMaterial"
    }
  ],
  "samplers": [
    {
      "magFilter": 9729,
      "minFilter": 9987,
      "wrapS": 10497,
      "wrapT": 10497
    }
  ],
  "scene": 0,
  "scenes": [
    {
      "name": "Sketchfab_Scene",
      "nodes": [
        0
      ]
    }
  ],
  "textures": [
    {
      "sampler": 0,
      "source": 0
    },
    {
      "sampler": 0,
      "source": 1
    },
    {
      "sampler": 0,
      "source": 2
    }
  ]
}
