{
  "accessors": [
    {
      "bufferView": 2,
      "componentType": 5126,
      "count": 24649,
      "max": [
        486.80792236328125,
        501.2547912597656,
        759.6655883789063
      ],
      "min": [
        -1007.3936157226563,
        -565.3253784179688,
        -1.6328933238983154
      ],
      "type": "VEC3"
    },
    {
      "bufferView": 2,
      "byteOffset": 295788,
      "componentType": 5126,
      "count": 24649,
      "max": [
        1.0,
        1.0,
        1.0
      ],
      "min": [
        -1.0,
        -1.0,
        -1.0
      ],
      "type": "VEC3"
    },
    {
      "bufferView": 3,
      "componentType": 5126,
      "count": 24649,
      "max": [
        1.0,
        1.0,
        1.0,
        1.0
      ],
      "min": [
        -1.0,
        -1.0,
        -1.0,
        -1.0
      ],
      "type": "VEC4"
    },
    {
      "bufferView": 3,
      "byteOffset": 394384,
      "componentType": 5126,
      "count": 24649,
      "max": [
        1.0,
        1.0,
        1.0,
        1.0
      ],
      "min": [
        0.0,
        0.0,
        0.0,
        1.0
      ],
      "type": "VEC4"
    },
    {
      "bufferView": 1,
      "componentType": 5126,
      "count": 24649,
      "max": [
        0.9979529976844788,
        1.0088322162628174
      ],
      "min": [
        -0.9967594742774963,
        0.0029468198772519827
      ],
      "type": "VEC2"
    },
    {
      "bufferView": 0,
      "componentType": 5125,
      "count": 47298,
      "type": "SCALAR"
    },
    {
      "bufferView": 2,
      "byteOffset": 591576,
      "componentType": 5126,
      "count": 196,
      "max": [
        455.4251403808594,
        455.3252868652344,
        522.4601440429688
      ],
      "min": [
        -981.3603515625,
        -348.3312072753906,
        30.537649154663086
      ],
      "type": "VEC3"
    },
    {
      "bufferView": 2,
      "byteOffset": 593928,
      "componentType": 5126,
      "count": 196,
      "max": [
        1.0,
        1.0,
        1.0
      ],
      "min": [
        -1.0,
        -1.0,
        -1.0
      ],
      "type": "VEC3"
    },
    {
      "bufferView": 3,
      "byteOffset": 788768,
      "componentType": 5126,
      "count": 196,
      "max": [
        1.0,
        1.0,
        0.6083104014396667,
        1.0
      ],
      "min": [
        -1.0,
        -1.0,
        -1.0,
        -1.0
      ],
      "type": "VEC4"
    },
    {
      "bufferView": 3,
      "byteOffset": 791904,
      "componentType": 5126,
      "count": 196,
      "max": [
        1.0,
        1.0,
        1.0,
        1.0
      ],
      "min": [
        1.0,
        1.0,
        1.0,
        1.0
      ],
      "type": "VEC4"
    },
    {
      "bufferView": 1,
      "byteOffset": 197192,
      "componentType": 5126,
      "count": 196,
      "max": [
        1.0,
        0.7443757653236389
      ],
      "min": [
        0.5477612018585205,
        0.43221038579940796
      ],
      "type": "VEC2"
    },
    {
      "bufferView": 0,
      "byteOffset": 189192,
      "componentType": 5125,
      "count": 360,
      "type": "SCALAR"
    },
    {
      "bufferView": 2,
      "byteOffset": 596280,
      "componentType": 5126,
      "count": 834,
      "max": [
        321.47406005859375,
        423.04071044921875,
        342.6773681640625
      ],
      "min": [
        -982.32080078125,
        -483.0445556640625,
        2.0021722316741943
      ],
      "type": "VEC3"
    },
    {
      "bufferView": 2,
      "byteOffset": 606288,
      "componentType": 5126,
      "count": 834,
      "max": [
        0.9951296448707581,
        1.0,
        1.0
      ],
      "min": [
        -0.9981632232666016,
        -1.0,
        -0.9996290802955627
      ],
      "type": "VEC3"
    },
    {
      "bufferView": 3,
      "byteOffset": 795040,
      "componentType": 5126,
      "count": 834,
      "max": [
        1.0,
        0.9999502301216125,
        0.9999538660049438,
        1.0
      ],
      "min": [
        -1.0,
        -0.9996846318244934,
        -1.0,
        -1.0
      ],
      "type": "VEC4"
    },
    {
      "bufferView": 3,
      "byteOffset": 808384,
      "componentType": 5126,
      "count": 834,
      "max": [
        1.0,
        1.0,
        1.0,
        1.0
      ],
      "min": [
        0.38823530077934265,
        0.08627451211214066,
        0.0,
        1.0
      ],
      "type": "VEC4"
    },
    {
      "bufferView": 1,
      "byteOffset": 198760,
      "componentType": 5126,
      "count": 834,
      "max": [
        1.0,
        0.4986630976200104
      ],
      "min": [
        0.0,
        0.0
      ],
      "type": "VEC2"
    },
    {
      "bufferView": 0,
      "byteOffset": 190632,
      "componentType": 5125,
      "count": 3195,
      "type": "SCALAR"
    },
    {
      "bufferView": 2,
      "byteOffset": 616296,
      "componentType": 5126,
      "count": 1058,
      "max": [
        483.0240783691406,
        456.27392578125,
        726.5765991210938
      ],
      "min": [
        -983.7526245117188,
        -509.0329284667969,
        0.9983807802200317
      ],
      "type": "VEC3"
    },
    {
      "bufferView": 2,
      "byteOffset": 628992,
      "componentType": 5126,
      "count": 1058,
      "max": [
        1.0,
        1.0,
        1.0
      ],
      "min": [
        -1.0,
        -1.0,
        -0.0007372466498054564
      ],
      "type": "VEC3"
    },
    {
      "bufferView": 3,
      "byteOffset": 821728,
      "componentType": 5126,
      "count": 1058,
      "max": [
        1.0,
        1.0,
        1.0,
        1.0
      ],
      "min": [
        -1.0,
        -1.0,
        -0.23784847557544708,
        -1.0
      ],
      "type": "VEC4"
    },
    {
      "bufferView": 3,
      "byteOffset": 838656,
      "componentType": 5126,
      "count": 1058,
      "max": [
        1.0,
        1.0,
        1.0,
        1.0
      ],
      "min": [
        0.11372549086809158,
        0.11372549086809158,
        0.11372549086809158,
        0.0
      ],
      "type": "VEC4"
    },
    {
      "bufferView": 1,
      "byteOffset": 205432,
      "componentType": 5126,
      "count": 1058,
      "max": [
        2.796752452850342,
        1.0117207765579224
      ],
      "min": [
        -1.6271544694900513,
        0.0
      ],
      "type": "VEC2"
    },
    {
      "bufferView": 0,
      "byteOffset": 203412,
      "componentType": 5125,
      "count": 1986,
      "type": "SCALAR"
    }
  ],
  "asset": {
    "extras": {
      "author": "CGMeller (https://sketchfab.com/CGMeller)",
      "license": "CC-BY-NC-4.0 (http://creativecommons.org/licenses/by-nc/4.0/)",
      "source": "https://sketchfab.com/3d-models/american-house-87b24124ea0a4d8aa2af285efc9fcafa",
      "title": "American House"
    },
    "generator": "Sketchfab-16.99.0",
    "version": "2.0"
  },
  "bufferViews": [
    {
      "buffer": 0,
      "byteLength": 211356,
      "name": "floatBufferViews",
      "target": 34963
    },
    {
      "buffer": 0,
      "byteLength": 213896,
      "byteOffset": 211356,
      "byteStride": 8,
      "name": "floatBufferViews",
      "target": 34962
    },
    {
      "buffer": 0,
      "byteLength": 641688,
      "byteOffset": 425252,
      "byteStride": 12,
      "name": "floatBufferViews",
      "target": 34962
    },
    {
      "buffer": 0,
      "byteLength": 855584,
      "byteOffset": 1066940,
      "byteStride": 16,
      "name": "floatBufferViews",
      "target": 34962
    }
  ],
  "buffers": [
    {
      "byteLength": 1922524,
      "uri": "scene.bin"
    }
  ],
  "extensionsRequired": [
    "KHR_materials_pbrSpecularGlossiness"
  ],
  "extensionsUsed": [
    "KHR_materials_pbrSpecularGlossiness"
  ],
  "images": [
    {
      "uri": "textures/Main_diffuse.png"
    },
    {
      "uri": "textures/Main_specularGlossiness.png"
    },
    {
      "uri": "textures/Main_normal.png"
    },
    {
      "uri": "textures/Main_occlusion.png"
    },
    {
      "uri": "textures/Glass_diffuse.png"
    },
    {
      "uri": "textures/Glass_specularGlossiness.png"
    },
    {
      "uri": "textures/Glass_normal.png"
    }
  ],
  "materials": [
    {
      "doubleSided": true,
      "extensions": {
        "KHR_materials_pbrSpecularGlossiness": {
          "diffuseFactor": [
            1.0,
            1.0,
            1.0,
            1.0
          ],
          "diffuseTexture": {
            "index": 0
          },
          "glossinessFactor": 1.0,
          "specularFactor": [
            1.0,
            1.0,
            1.0
          ],
          "specularGlossinessTexture": {
            "index": 1
          }
        }
      },
      "name": "Main",
      "normalTexture": {
        "index": 2
      },
      "occlusionTexture": {
        "index": 3
      }
    },
    {
      "alphaMode": "BLEND",
      "doubleSided": true,
      "extensions": {
        "KHR_materials_pbrSpecularGlossiness": {
          "diffuseFactor": [
            1.0,
            1.0,
            1.0,
            1.0
          ],
          "diffuseTexture": {
            "index": 4
          },
          "glossinessFactor": 1.0,
          "specularFactor": [
            1.0,
            1.0,
            1.0
          ],
          "specularGlossinessTexture": {
            "index": 5
          }
        }
      },
      "name": "Glass",
      "normalTexture": {
        "index": 6
      }
    },
    {
      "alphaMode": "BLEND",
      "doubleSided": true,
      "extensions": {
        "KHR_materials_pbrSpecularGlossiness": {
          "diffuseFactor": [
            1.0,
            1.0,
            1.0,
            1.0
          ],
          "diffuseTexture": {
            "index": 4
          },
          "glossinessFactor": 1.0,
          "specularFactor": [
            1.0,
            1.0,
            1.0
          ],
          "specularGlossinessTexture": {
            "index": 5
          }
        }
      },
      "name": "Objects",
      "normalTexture": {
        "index": 6
      }
    },
    {
      "alphaMode": "BLEND",
      "extensions": {
        "KHR_materials_pbrSpecularGlossiness": {
          "diffuseFactor": [
            1.0,
            1.0,
            1.0,
            1.0
          ],
          "diffuseTexture": {
            "index": 4
          },
          "glossinessFactor": 0.5,
          "specularFactor": [
            1.0,
            1.0,
            1.0
          ],
          "specularGlossinessTexture": {
            "index": 5
          }
        }
      },
      "name": "Decal",
      "normalTexture": {
        "index": 6
      }
    }
  ],
  "meshes": [
    {
      "name": "american_house_MARK_2_Main_0",
      "primitives": [
        {
          "attributes": {
            "COLOR_0": 3,
            "NORMAL": 1,
            "POSITION": 0,
            "TANGENT": 2,
            "TEXCOORD_0": 4
          },
          "indices": 5,
          "material": 0,
          "mode": 4
        }
      ]
    },
    {
      "name": "american_house_MARK_2_Glass_0",
      "primitives": [
        {
          "attributes": {
            "COLOR_0": 9,
            "NORMAL": 7,
            "POSITION": 6,
            "TANGENT": 8,
            "TEXCOORD_0": 10
          },
          "indices": 11,
          "material": 1,
          "mode": 4
        }
      ]
    },
    {
      "name": "american_house_MARK_2_Objects_0",
      "primitives": [
        {
          "attributes": {
            "COLOR_0": 15,
            "NORMAL": 13,
            "POSITION": 12,
            "TANGENT": 14,
            "TEXCOORD_0": 16
          },
          "indices": 17,
          "material": 2,
          "mode": 4
        }
      ]
    },
    {
      "name": "american_house_MARK_2_Decal_0",
      "primitives": [
        {
          "attributes": {
            "COLOR_0": 21,
            "NORMAL": 19,
            "POSITION": 18,
            "TANGENT": 20,
            "TEXCOORD_0": 22
          },
          "indices": 23,
          "material": 3,
          "mode": 4
        }
      ]
    }
  ],
  "nodes": [
    {
      "children": [
        1
      ],
      "matrix": [
        1.0,
        0.0,
        0.0,
        0.0,
        0.0,
        2.220446049250313e-16,
        -1.0,
        0.0,
        0.0,
        1.0,
        2.220446049250313e-16,
        0.0,
        0.0,
        0.0,
        0.0,
        1.0
      ],
      "name": "Sketchfab_model"
    },
    {
      "children": [
        2
      ],
      "matrix": [
        0.009999999776482582,
        0.0,
        0.0,
        0.0,
        0.0,
        0.0,
        0.009999999776482582,
        0.0,
        0.0,
        -0.009999999776482582,
        0.0,
        0.0,
        0.0,
        0.0,
        0.0,
        1.0
      ],
      "name": "f3fdc69c102a4bef9ff0c223e14c83a2.fbx"
    },
    {
      "children": [
        3
      ],
      "name": "RootNode"
    },
    {
      "children": [
        4,
        5,
        6,
        7
      ],
      "matrix": [
        1.0,
        0.0,
        0.0,
        0.0,
        0.0,
        -2.8212996916465727e-07,
        -0.9999999999999603,
        0.0,
        0.0,
        0.9999999999999603,
        -2.8212996916465727e-07,
        0.0,
        0.0,
        0.0,
        0.0,
        1.0
      ],
      "name": "american_house_MARK_2"
    },
    {
      "mesh": 0,
      "name": "american_house_MARK_2_Main_0"
    },
    {
      "mesh": 1,
      "name": "american_house_MARK_2_Glass_0"
    },
    {
      "mesh": 2,
      "name": "american_house_MARK_2_Objects_0"
    },
    {
      "mesh": 3,
      "name": "american_house_MARK_2_Decal_0"
    }
  ],
  "samplers": [
    {
      "magFilter": 9729,
      "minFilter": 9987,
      "wrapS": 10497,
      "wrapT": 10497
    }
  ],
  "scene": 0,
  "scenes": [
    {
      "name": "Sketchfab_Scene",
      "nodes": [
        0
      ]
    }
  ],
  "textures": [
    {
      "sampler": 0,
      "source": 0
    },
    {
      "sampler": 0,
      "source": 1
    },
    {
      "sampler": 0,
      "source": 2
    },
    {
      "sampler": 0,
      "source": 3
    },
    {
      "sampler": 0,
      "source": 4
    },
    {
      "sampler": 0,
      "source": 5
    },
    {
      "sampler": 0,
      "source": 6
    }
  ]
}
